<?xml version="1.0" encoding="UTF-8"?>
<svg width="152" height="52" viewBox="0 0 152 52" fill="none" xmlns="http://www.w3.org/2000/svg">
<g clip-path="url(#clip0_9409_7330)">
<path d="M125.687 26.5664L124.592 32.4639L118.438 38.0469L112.911 39.5098L103.933 37.21L101 28.4199L101.09 22L125.687 26.5664ZM113.009 26.1006C111.467 25.8188 109.991 26.8409 109.709 28.3818C109.494 29.5573 110.042 30.6951 110.999 31.291L109.197 34.5527L113.596 35.3555L113.06 31.667C114.165 31.4445 115.079 30.5736 115.291 29.3994C115.573 27.8571 114.55 26.3788 113.009 26.1006Z" fill="#FAFAFA"/>
<path d="M0 22.0641V21.9486C0 10.5114 8.54809 1.03906 20.4474 1.03906C27.7835 1.03906 32.1735 3.63844 36.216 7.45085L33.0968 10.8012C29.6887 7.56638 25.8763 5.25582 20.3887 5.25582C11.4363 5.25582 4.73567 12.5341 4.73567 21.8331V21.9486C4.73567 31.3064 11.494 38.6414 20.3887 38.6414C25.934 38.6414 29.5732 36.5041 33.4434 32.8073L36.4471 35.7532C32.2303 40.0277 27.6092 42.8572 20.2742 42.8572C8.60585 42.8582 0 33.6747 0 22.0641Z" fill="#FAFAFA"/>
<path d="M50.4836 5.94918H36.91V1.73242H68.6792V5.94918H55.1047V42.1662H50.4836V5.94918Z" fill="#FAFAFA"/>
<path d="M70.5863 1.73242H99.6406V5.94918H75.1496V20.3902H97.0412V24.5491H75.1496V42.1662H70.5863V1.73242Z" fill="#FAFAFA"/>
<path d="M123.367 27.2636V27.1481C123.367 20.2742 118.112 15.654 112.567 15.654C106.79 15.654 102.053 19.9285 102.053 27.1481V27.2636C102.053 34.3108 106.963 38.8164 112.567 38.8164C118.112 38.8154 123.367 34.1365 123.367 27.2636ZM98.4529 27.3213V27.2058C98.4529 17.4447 104.595 12.631 111.758 12.631C117.303 12.631 120.884 14.672 123.194 18.0223V0H127.642V42.1657H123.194V36.1583C120.768 39.7396 117.244 41.8384 111.758 41.8384C104.595 41.8384 98.4529 37.1412 98.4529 27.3213Z" fill="#FAFAFA"/>
<path d="M139.945 7.21086C134.01 0.569937 128.34 0 128.34 0V28.3101C128.34 28.3101 132.738 21.9455 140.942 20.1942C146.442 19.0207 149.125 16.738 151.55 14.155C151.55 14.155 145.475 13.3974 139.945 7.21086Z" fill="#FAFAFA"/>
<path d="M127.644 49.8678C127.644 50.8584 121.11 51.6633 113.049 51.6633C104.987 51.6633 98.452 50.8584 98.452 49.8678C98.452 48.8771 104.987 48.0723 113.049 48.0723C121.11 48.0723 127.644 48.8771 127.644 49.8678Z" fill="#FAFAFA"/>
</g>
<defs>
<clipPath id="clip0_9409_7330">
<rect width="151.549" height="51.664" fill="white"/>
</clipPath>
</defs>
</svg>