<svg width="112" height="53" viewBox="0 0 112 53" fill="none" xmlns="http://www.w3.org/2000/svg">
<path d="M1 0V21.5M1 21.5V34.5C1 37.8137 3.68629 40.5 7 40.5H13.5C16.8137 40.5 19.5 37.8137 19.5 34.5V27.5C19.5 24.1863 16.8137 21.5 13.5 21.5H1Z" stroke="#09090B" stroke-width="1.75"/>
<path d="M8 53V31.5M8 31.5V18.5C8 15.1863 10.6863 12.5 14 12.5H20.5C23.8137 12.5 26.5 15.1863 26.5 18.5V25.5C26.5 28.8137 23.8137 31.5 20.5 31.5H8Z" stroke="#09090B" stroke-width="1.75"/>
<path d="M32.96 33.74C31.8667 33.74 30.9933 33.4867 30.34 32.98C29.7 32.4733 29.38 31.7667 29.38 30.86C29.38 29.9533 29.6467 29.24 30.18 28.72C30.7133 28.2 31.56 27.8333 32.72 27.62L36.48 26.92C36.48 26.0267 36.2667 25.36 35.84 24.92C35.4267 24.48 34.8 24.26 33.96 24.26C33.2267 24.26 32.6467 24.4267 32.22 24.76C31.7933 25.08 31.5 25.5467 31.34 26.16L29.56 26.02C29.76 25.02 30.24 24.2133 31 23.6C31.7733 22.9733 32.76 22.66 33.96 22.66C35.32 22.66 36.36 23.0467 37.08 23.82C37.8 24.58 38.16 25.6333 38.16 26.98V31.36C38.16 31.6 38.2 31.7733 38.28 31.88C38.3733 31.9733 38.52 32.02 38.72 32.02H39.14V33.5C39.0867 33.5133 39 33.52 38.88 33.52C38.76 33.5333 38.6333 33.54 38.5 33.54C38.02 33.54 37.6267 33.4667 37.32 33.32C37.0267 33.16 36.8133 32.92 36.68 32.6C36.5467 32.2667 36.48 31.8333 36.48 31.3L36.68 31.34C36.5867 31.7933 36.36 32.2067 36 32.58C35.64 32.94 35.1933 33.2267 34.66 33.44C34.1267 33.64 33.56 33.74 32.96 33.74ZM33.12 32.26C33.8267 32.26 34.4267 32.1267 34.92 31.86C35.4267 31.58 35.8133 31.2067 36.08 30.74C36.3467 30.26 36.48 29.7267 36.48 29.14V28.38L33.04 29.02C32.32 29.1533 31.82 29.36 31.54 29.64C31.2733 29.9067 31.14 30.26 31.14 30.7C31.14 31.1933 31.3133 31.58 31.66 31.86C32.02 32.1267 32.5067 32.26 33.12 32.26ZM41.0375 33.5V22.9H42.5175L42.5975 25.58L42.4375 25.52C42.5708 24.6133 42.8575 23.9533 43.2975 23.54C43.7508 23.1133 44.3508 22.9 45.0975 22.9H46.1375V24.5H45.1175C44.5842 24.5 44.1375 24.6 43.7775 24.8C43.4308 24.9867 43.1642 25.2733 42.9775 25.66C42.8042 26.0333 42.7175 26.5133 42.7175 27.1V33.5H41.0375ZM51.9549 33.74C50.9682 33.74 50.1082 33.5133 49.3749 33.06C48.6549 32.6067 48.0949 31.9667 47.6949 31.14C47.2949 30.3 47.0949 29.32 47.0949 28.2C47.0949 27.08 47.2949 26.1067 47.6949 25.28C48.0949 24.4533 48.6549 23.8133 49.3749 23.36C50.1082 22.8933 50.9682 22.66 51.9549 22.66C52.7682 22.66 53.4882 22.8067 54.1149 23.1C54.7549 23.38 55.2749 23.7933 55.6749 24.34C56.0749 24.8867 56.3349 25.5533 56.4549 26.34L54.6949 26.46C54.5749 25.7533 54.2682 25.2133 53.7749 24.84C53.2815 24.4533 52.6749 24.26 51.9549 24.26C50.9815 24.26 50.2215 24.6133 49.6749 25.32C49.1282 26.0133 48.8549 26.9733 48.8549 28.2C48.8549 29.4267 49.1282 30.3933 49.6749 31.1C50.2215 31.7933 50.9815 32.14 51.9549 32.14C52.6749 32.14 53.2815 31.94 53.7749 31.54C54.2682 31.14 54.5749 30.54 54.6949 29.74L56.4549 29.86C56.3349 30.6467 56.0749 31.3333 55.6749 31.92C55.2749 32.4933 54.7549 32.94 54.1149 33.26C53.4882 33.58 52.7682 33.74 51.9549 33.74ZM58.5375 33.5V19.3H60.2175V25.24L60.0175 25.2C60.1508 24.6133 60.3775 24.1333 60.6975 23.76C61.0175 23.3867 61.4108 23.1133 61.8775 22.94C62.3442 22.7533 62.8575 22.66 63.4175 22.66C64.1775 22.66 64.8175 22.8333 65.3375 23.18C65.8708 23.5133 66.2708 23.9867 66.5375 24.6C66.8175 25.2 66.9575 25.8933 66.9575 26.68V33.5H65.2775V27.16C65.2775 26.1333 65.0908 25.3733 64.7175 24.88C64.3575 24.3867 63.8042 24.14 63.0575 24.14C62.2042 24.14 61.5175 24.4 60.9975 24.92C60.4775 25.44 60.2175 26.1933 60.2175 27.18V33.5H58.5375ZM69.9633 33.5V22.9H71.6433V33.5H69.9633ZM69.9233 21.24V19.28H71.6833V21.24H69.9233ZM75.0414 33.5V22.9H76.5814L76.6414 25.6L76.4414 25.42C76.5748 24.7933 76.8081 24.28 77.1414 23.88C77.4748 23.4667 77.8748 23.16 78.3414 22.96C78.8214 22.76 79.3348 22.66 79.8814 22.66C80.6948 22.66 81.3614 22.84 81.8814 23.2C82.4148 23.56 82.8081 24.0467 83.0614 24.66C83.3281 25.26 83.4614 25.9333 83.4614 26.68V33.5H81.7814V27.16C81.7814 26.5067 81.7014 25.96 81.5414 25.52C81.3948 25.0667 81.1548 24.7267 80.8214 24.5C80.4881 24.26 80.0548 24.14 79.5214 24.14C78.7081 24.14 78.0348 24.4 77.5014 24.92C76.9814 25.4267 76.7214 26.1733 76.7214 27.16V33.5H75.0414ZM90.2881 33.74C89.3415 33.74 88.5348 33.5867 87.8681 33.28C87.2148 32.9733 86.7015 32.5533 86.3281 32.02C85.9681 31.4733 85.7615 30.8533 85.7081 30.16L87.4681 30.04C87.5748 30.68 87.8481 31.1933 88.2881 31.58C88.7281 31.9533 89.3948 32.14 90.2881 32.14C91.0081 32.14 91.5815 32.0267 92.0081 31.8C92.4481 31.56 92.6681 31.18 92.6681 30.66C92.6681 30.38 92.6015 30.1467 92.4681 29.96C92.3348 29.7733 92.0748 29.6133 91.6881 29.48C91.3015 29.3333 90.7281 29.1933 89.9681 29.06C88.9548 28.8733 88.1548 28.6467 87.5681 28.38C86.9948 28.1 86.5815 27.76 86.3281 27.36C86.0881 26.9467 85.9681 26.46 85.9681 25.9C85.9681 24.9533 86.3148 24.18 87.0081 23.58C87.7015 22.9667 88.6881 22.66 89.9681 22.66C90.8348 22.66 91.5615 22.82 92.1481 23.14C92.7481 23.4467 93.2148 23.86 93.5481 24.38C93.8948 24.8867 94.1215 25.4467 94.2281 26.06L92.4681 26.18C92.3881 25.8067 92.2415 25.48 92.0281 25.2C91.8148 24.9067 91.5348 24.68 91.1881 24.52C90.8415 24.3467 90.4281 24.26 89.9481 24.26C89.1881 24.26 88.6281 24.4067 88.2681 24.7C87.9081 24.9933 87.7281 25.3667 87.7281 25.82C87.7281 26.1667 87.8081 26.4533 87.9681 26.68C88.1415 26.8933 88.4148 27.0733 88.7881 27.22C89.1615 27.3533 89.6615 27.4733 90.2881 27.58C91.3681 27.7667 92.2081 27.9933 92.8081 28.26C93.4081 28.5267 93.8281 28.8533 94.0681 29.24C94.3081 29.6267 94.4281 30.1 94.4281 30.66C94.4281 31.3133 94.2415 31.8733 93.8681 32.34C93.5081 32.7933 93.0148 33.14 92.3881 33.38C91.7748 33.62 91.0748 33.74 90.2881 33.74ZM96.7211 33.5V19.3H98.4011V28.6L103.561 22.9H105.801L101.621 27.4L105.981 33.5H103.941L100.481 28.54L98.4011 30.74V33.5H96.7211ZM107.522 33.5V22.9H109.202V33.5H107.522ZM107.482 21.24V19.28H109.242V21.24H107.482Z" fill="#09090B"/>
</svg>
