<svg width="112" height="54" viewBox="0 0 112 54" fill="none" xmlns="http://www.w3.org/2000/svg">
<path d="M1 0.5V22M1 22V35C1 38.3137 3.68629 41 7 41H13.5C16.8137 41 19.5 38.3137 19.5 35V28C19.5 24.6863 16.8137 22 13.5 22H1Z" stroke="#FAFAFA" stroke-width="1.75"/>
<path d="M8 53.5V32M8 32V19C8 15.6863 10.6863 13 14 13H20.5C23.8137 13 26.5 15.6863 26.5 19V26C26.5 29.3137 23.8137 32 20.5 32H8Z" stroke="#FAFAFA" stroke-width="1.75"/>
<path d="M32.96 34.24C31.8667 34.24 30.9933 33.9867 30.34 33.48C29.7 32.9733 29.38 32.2667 29.38 31.36C29.38 30.4533 29.6467 29.74 30.18 29.22C30.7133 28.7 31.56 28.3333 32.72 28.12L36.48 27.42C36.48 26.5267 36.2667 25.86 35.84 25.42C35.4267 24.98 34.8 24.76 33.96 24.76C33.2267 24.76 32.6467 24.9267 32.22 25.26C31.7933 25.58 31.5 26.0467 31.34 26.66L29.56 26.52C29.76 25.52 30.24 24.7133 31 24.1C31.7733 23.4733 32.76 23.16 33.96 23.16C35.32 23.16 36.36 23.5467 37.08 24.32C37.8 25.08 38.16 26.1333 38.16 27.48V31.86C38.16 32.1 38.2 32.2733 38.28 32.38C38.3733 32.4733 38.52 32.52 38.72 32.52H39.14V34C39.0867 34.0133 39 34.02 38.88 34.02C38.76 34.0333 38.6333 34.04 38.5 34.04C38.02 34.04 37.6267 33.9667 37.32 33.82C37.0267 33.66 36.8133 33.42 36.68 33.1C36.5467 32.7667 36.48 32.3333 36.48 31.8L36.68 31.84C36.5867 32.2933 36.36 32.7067 36 33.08C35.64 33.44 35.1933 33.7267 34.66 33.94C34.1267 34.14 33.56 34.24 32.96 34.24ZM33.12 32.76C33.8267 32.76 34.4267 32.6267 34.92 32.36C35.4267 32.08 35.8133 31.7067 36.08 31.24C36.3467 30.76 36.48 30.2267 36.48 29.64V28.88L33.04 29.52C32.32 29.6533 31.82 29.86 31.54 30.14C31.2733 30.4067 31.14 30.76 31.14 31.2C31.14 31.6933 31.3133 32.08 31.66 32.36C32.02 32.6267 32.5067 32.76 33.12 32.76ZM41.0375 34V23.4H42.5175L42.5975 26.08L42.4375 26.02C42.5708 25.1133 42.8575 24.4533 43.2975 24.04C43.7508 23.6133 44.3508 23.4 45.0975 23.4H46.1375V25H45.1175C44.5842 25 44.1375 25.1 43.7775 25.3C43.4308 25.4867 43.1642 25.7733 42.9775 26.16C42.8042 26.5333 42.7175 27.0133 42.7175 27.6V34H41.0375ZM51.9549 34.24C50.9682 34.24 50.1082 34.0133 49.3749 33.56C48.6549 33.1067 48.0949 32.4667 47.6949 31.64C47.2949 30.8 47.0949 29.82 47.0949 28.7C47.0949 27.58 47.2949 26.6067 47.6949 25.78C48.0949 24.9533 48.6549 24.3133 49.3749 23.86C50.1082 23.3933 50.9682 23.16 51.9549 23.16C52.7682 23.16 53.4882 23.3067 54.1149 23.6C54.7549 23.88 55.2749 24.2933 55.6749 24.84C56.0749 25.3867 56.3349 26.0533 56.4549 26.84L54.6949 26.96C54.5749 26.2533 54.2682 25.7133 53.7749 25.34C53.2815 24.9533 52.6749 24.76 51.9549 24.76C50.9815 24.76 50.2215 25.1133 49.6749 25.82C49.1282 26.5133 48.8549 27.4733 48.8549 28.7C48.8549 29.9267 49.1282 30.8933 49.6749 31.6C50.2215 32.2933 50.9815 32.64 51.9549 32.64C52.6749 32.64 53.2815 32.44 53.7749 32.04C54.2682 31.64 54.5749 31.04 54.6949 30.24L56.4549 30.36C56.3349 31.1467 56.0749 31.8333 55.6749 32.42C55.2749 32.9933 54.7549 33.44 54.1149 33.76C53.4882 34.08 52.7682 34.24 51.9549 34.24ZM58.5375 34V19.8H60.2175V25.74L60.0175 25.7C60.1508 25.1133 60.3775 24.6333 60.6975 24.26C61.0175 23.8867 61.4108 23.6133 61.8775 23.44C62.3442 23.2533 62.8575 23.16 63.4175 23.16C64.1775 23.16 64.8175 23.3333 65.3375 23.68C65.8708 24.0133 66.2708 24.4867 66.5375 25.1C66.8175 25.7 66.9575 26.3933 66.9575 27.18V34H65.2775V27.66C65.2775 26.6333 65.0908 25.8733 64.7175 25.38C64.3575 24.8867 63.8042 24.64 63.0575 24.64C62.2042 24.64 61.5175 24.9 60.9975 25.42C60.4775 25.94 60.2175 26.6933 60.2175 27.68V34H58.5375ZM69.9633 34V23.4H71.6433V34H69.9633ZM69.9233 21.74V19.78H71.6833V21.74H69.9233ZM75.0414 34V23.4H76.5814L76.6414 26.1L76.4414 25.92C76.5748 25.2933 76.8081 24.78 77.1414 24.38C77.4748 23.9667 77.8748 23.66 78.3414 23.46C78.8214 23.26 79.3348 23.16 79.8814 23.16C80.6948 23.16 81.3614 23.34 81.8814 23.7C82.4148 24.06 82.8081 24.5467 83.0614 25.16C83.3281 25.76 83.4614 26.4333 83.4614 27.18V34H81.7814V27.66C81.7814 27.0067 81.7014 26.46 81.5414 26.02C81.3948 25.5667 81.1548 25.2267 80.8214 25C80.4881 24.76 80.0548 24.64 79.5214 24.64C78.7081 24.64 78.0348 24.9 77.5014 25.42C76.9814 25.9267 76.7214 26.6733 76.7214 27.66V34H75.0414ZM90.2881 34.24C89.3415 34.24 88.5348 34.0867 87.8681 33.78C87.2148 33.4733 86.7015 33.0533 86.3281 32.52C85.9681 31.9733 85.7615 31.3533 85.7081 30.66L87.4681 30.54C87.5748 31.18 87.8481 31.6933 88.2881 32.08C88.7281 32.4533 89.3948 32.64 90.2881 32.64C91.0081 32.64 91.5815 32.5267 92.0081 32.3C92.4481 32.06 92.6681 31.68 92.6681 31.16C92.6681 30.88 92.6015 30.6467 92.4681 30.46C92.3348 30.2733 92.0748 30.1133 91.6881 29.98C91.3015 29.8333 90.7281 29.6933 89.9681 29.56C88.9548 29.3733 88.1548 29.1467 87.5681 28.88C86.9948 28.6 86.5815 28.26 86.3281 27.86C86.0881 27.4467 85.9681 26.96 85.9681 26.4C85.9681 25.4533 86.3148 24.68 87.0081 24.08C87.7015 23.4667 88.6881 23.16 89.9681 23.16C90.8348 23.16 91.5615 23.32 92.1481 23.64C92.7481 23.9467 93.2148 24.36 93.5481 24.88C93.8948 25.3867 94.1215 25.9467 94.2281 26.56L92.4681 26.68C92.3881 26.3067 92.2415 25.98 92.0281 25.7C91.8148 25.4067 91.5348 25.18 91.1881 25.02C90.8415 24.8467 90.4281 24.76 89.9481 24.76C89.1881 24.76 88.6281 24.9067 88.2681 25.2C87.9081 25.4933 87.7281 25.8667 87.7281 26.32C87.7281 26.6667 87.8081 26.9533 87.9681 27.18C88.1415 27.3933 88.4148 27.5733 88.7881 27.72C89.1615 27.8533 89.6615 27.9733 90.2881 28.08C91.3681 28.2667 92.2081 28.4933 92.8081 28.76C93.4081 29.0267 93.8281 29.3533 94.0681 29.74C94.3081 30.1267 94.4281 30.6 94.4281 31.16C94.4281 31.8133 94.2415 32.3733 93.8681 32.84C93.5081 33.2933 93.0148 33.64 92.3881 33.88C91.7748 34.12 91.0748 34.24 90.2881 34.24ZM96.7211 34V19.8H98.4011V29.1L103.561 23.4H105.801L101.621 27.9L105.981 34H103.941L100.481 29.04L98.4011 31.24V34H96.7211ZM107.522 34V23.4H109.202V34H107.522ZM107.482 21.74V19.78H109.242V21.74H107.482Z" fill="#FAFAFA"/>
</svg>
